<?xml version="1.0" encoding="UTF-8"?> <svg xmlns="http://www.w3.org/2000/svg" clip-rule="evenodd" fill-rule="evenodd" stroke-linejoin="round" stroke-miterlimit="2" viewBox="0 0 800 480"><path d="m0 0h800v480h-800z" fill="#262626"></path><g fill-rule="nonzero"><path d="m.081-.126c0-.027.007-.051.02-.072.012-.02.033-.037.062-.052.028-.015.064-.027.109-.036s.098-.017.161-.022c-.001-.017-.003-.032-.008-.047s-.012-.027-.022-.038c-.01-.012-.023-.02-.04-.027-.016-.007-.036-.01-.059-.01-.032 0-.063.006-.092.019-.029.012-.055.025-.078.039l-.032-.056c.012-.008.026-.016.042-.024.017-.009.034-.016.052-.023.019-.007.038-.012.059-.016.021-.005.042-.007.063-.007.067 0 .116.018.148.055.033.036.049.084.049.145v.298h-.067l-.007-.066h-.003c-.027.021-.058.04-.091.055s-.066.023-.101.023c-.023 0-.044-.003-.064-.009-.02-.007-.038-.016-.053-.027-.015-.012-.026-.026-.035-.043s-.013-.037-.013-.059zm.08-.006c0 .014.003.026.009.036.006.009.014.017.023.024.01.006.021.011.034.014s.027.004.041.004c.028 0 .055-.006.082-.018.027-.013.055-.031.083-.054v-.128c-.052.004-.096.01-.131.017s-.063.016-.084.027c-.021.01-.035.022-.044.035s-.013.027-.013.043z" fill="#db9fff" transform="matrix(24 0 0 24 201.268 317.464)"></path><path d="m.219-.43c0-.025.008-.046.023-.062.016-.015.035-.023.058-.023s.042.008.057.024c.016.015.024.036.024.061s-.008.046-.024.061c-.015.015-.034.023-.057.023s-.042-.008-.057-.023c-.016-.015-.024-.036-.024-.061zm0 .358c0-.025.008-.046.023-.062.016-.015.035-.023.058-.023s.042.008.057.023c.016.016.024.037.024.062s-.008.046-.024.061c-.015.015-.034.023-.057.023s-.042-.008-.057-.023c-.016-.015-.024-.036-.024-.061z" fill="#db9fff" transform="matrix(24 0 0 24 215.668 317.464)"></path><path d="m.093-.712h.082v.194l-.002.094c.023-.023.05-.041.079-.054.028-.013.057-.02.086-.02.033 0 .062.006.087.018.025.011.046.028.063.05.017.021.03.047.039.078.009.03.013.064.013.101 0 .041-.006.078-.018.111s-.028.06-.048.083c-.021.023-.044.04-.071.052-.027.011-.054.017-.083.017-.023 0-.048-.006-.076-.017-.026-.012-.052-.028-.075-.049h-.003l-.007.054h-.066v-.712zm.082.598c.023.021.047.035.071.044.023.009.044.013.061.013.021 0 .041-.005.059-.014s.034-.021.047-.038c.013-.016.024-.036.031-.06s.011-.051.011-.081c0-.027-.003-.051-.008-.073s-.013-.041-.024-.056c-.011-.016-.026-.028-.043-.037s-.038-.013-.062-.013c-.021 0-.044.006-.068.017-.025.012-.05.031-.075.056z" fill="#db9fff" transform="matrix(24 0 0 24 230.068 317.464)"></path><path d="m.069-.242c0-.04.007-.076.021-.108.014-.031.032-.058.055-.08s.05-.039.079-.05c.03-.012.061-.018.092-.018.035 0 .066.006.093.017s.05.026.07.046c.019.02.033.044.043.072s.015.059.015.093c0 .009 0 .017-.001.026 0 .008-.001.015-.002.021h-.38c.001.026.006.049.015.07.01.021.023.038.039.053.017.015.036.026.058.034.023.008.047.012.074.012.029 0 .055-.004.078-.012.024-.008.047-.019.07-.033l.029.054c-.024.015-.051.029-.082.04s-.066.017-.105.017c-.036 0-.07-.006-.102-.017-.031-.012-.059-.029-.083-.05-.023-.022-.042-.049-.056-.08-.013-.031-.02-.067-.02-.107zm.392-.04c0-.049-.013-.086-.038-.112s-.061-.039-.106-.039c-.02 0-.039.003-.058.01-.018.007-.034.016-.049.029s-.027.029-.037.048-.017.04-.02.064z" fill="#db9fff" transform="matrix(24 0 0 24 244.468 317.464)"></path><path d="m.559-.634c-.02-.009-.038-.016-.055-.018-.017-.003-.037-.005-.058-.005-.044 0-.076.011-.094.033-.019.023-.029.054-.029.094v.044h.204v.067h-.204v.419h-.081v-.419h-.139v-.062l.139-.005v-.041c0-.059.016-.107.048-.143.031-.036.081-.054.148-.054.048 0 .095.009.14.028z" fill="#db9fff" transform="matrix(24 0 0 24 258.868 317.464)"></path><path d="m.06-.242c0-.041.007-.077.02-.109.013-.031.03-.058.052-.08s.047-.039.076-.05.06-.017.092-.017.063.006.091.017c.03.011.055.028.077.05s.039.049.052.08c.013.032.02.068.02.109 0 .04-.007.076-.02.107-.013.032-.03.059-.052.081-.022.021-.047.038-.077.049-.028.011-.059.017-.091.017s-.063-.006-.092-.017-.054-.028-.076-.049c-.022-.022-.04-.049-.053-.081-.013-.031-.019-.067-.019-.107zm.085 0c0 .028.004.053.011.076s.018.042.031.058c.014.017.03.029.049.038s.041.014.064.014.044-.005.063-.014.036-.021.049-.038c.014-.016.025-.035.032-.058s.011-.048.011-.076-.004-.054-.011-.077c-.007-.022-.018-.042-.032-.059-.013-.017-.03-.03-.049-.038-.019-.01-.04-.014-.063-.014s-.045.005-.064.014c-.019.008-.035.021-.049.038-.013.017-.024.037-.031.059-.007.023-.011.049-.011.077z" fill="#db9fff" transform="matrix(24 0 0 24 273.268 317.464)"></path><path d="m.146-.486h.068l.007.115h.003c.025-.039.057-.07.094-.093.036-.023.078-.034.123-.034.018 0 .035.002.05.005s.031.008.046.015l-.019.071c-.017-.006-.032-.01-.043-.013-.012-.003-.028-.004-.047-.004-.037 0-.072.011-.106.031-.033.022-.065.057-.094.108v.285h-.082z" fill="#db9fff" transform="matrix(24 0 0 24 287.668 317.464)"></path><path d="m.069-.242c0-.04.007-.076.021-.108.014-.031.032-.058.055-.08s.05-.039.079-.05c.03-.012.061-.018.092-.018.035 0 .066.006.093.017s.05.026.07.046c.019.02.033.044.043.072s.015.059.015.093c0 .009 0 .017-.001.026 0 .008-.001.015-.002.021h-.38c.001.026.006.049.015.07.01.021.023.038.039.053.017.015.036.026.058.034.023.008.047.012.074.012.029 0 .055-.004.078-.012.024-.008.047-.019.07-.033l.029.054c-.024.015-.051.029-.082.04s-.066.017-.105.017c-.036 0-.07-.006-.102-.017-.031-.012-.059-.029-.083-.05-.023-.022-.042-.049-.056-.08-.013-.031-.02-.067-.02-.107zm.392-.04c0-.049-.013-.086-.038-.112s-.061-.039-.106-.039c-.02 0-.039.003-.058.01-.018.007-.034.016-.049.029s-.027.029-.037.048-.017.04-.02.064z" fill="#db9fff" transform="matrix(24 0 0 24 302.068 317.464)"></path><path d="m.256.019c0-.018.001-.035.002-.052.001-.016.002-.032.003-.047s.002-.031.003-.046.001-.031.001-.048c0-.01-.002-.02-.006-.029s-.011-.017-.022-.024-.025-.013-.045-.018c-.019-.005-.043-.007-.072-.007v-.052c.029 0 .053-.002.073-.007.019-.005.033-.011.044-.018s.018-.016.022-.024c.004-.009.006-.019.006-.029 0-.032-.002-.063-.005-.094s-.004-.064-.004-.099c0-.026.004-.047.011-.065.007-.016.019-.03.034-.04s.035-.017.058-.021c.023-.005.051-.007.082-.007h.061v.048h-.052c-.025 0-.046.002-.063.005-.016.003-.029.009-.037.016-.01.007-.016.016-.019.028-.003.011-.005.025-.005.041 0 .029.001.058.003.089.002.03.003.061.003.092 0 .033-.007.058-.02.075s-.036.028-.071.034v.004c.035.006.058.018.072.035.013.017.019.041.019.074 0 .034-.001.065-.003.093s-.003.057-.003.088c0 .016.002.03.005.042.003.011.01.021.019.028.008.007.021.012.037.015.017.003.038.005.063.005h.052v.048h-.061c-.031 0-.059-.002-.082-.006-.023-.005-.043-.012-.058-.022s-.027-.023-.034-.04-.011-.039-.011-.065z" fill="#fff" transform="matrix(24 0 0 24 330.868 317.464)"></path><path d="m.08-.242c0-.041.007-.077.022-.109.014-.031.033-.058.058-.08s.054-.039.086-.05c.034-.011.068-.017.105-.017.04 0 .075.007.104.021s.053.031.073.05l-.041.053c-.02-.017-.041-.031-.062-.041-.022-.01-.046-.015-.071-.015-.028 0-.054.005-.077.014-.023.008-.043.021-.059.038-.017.017-.03.037-.039.059-.009.023-.014.049-.014.077s.005.053.014.076.021.042.038.058c.016.017.036.029.059.038s.048.014.076.014c.03 0 .058-.006.083-.018.025-.011.047-.026.068-.043l.036.053c-.027.024-.056.043-.089.056-.033.013-.068.02-.104.02-.038 0-.073-.006-.105-.017-.033-.011-.061-.028-.085-.05-.024-.021-.043-.048-.056-.08-.013-.031-.02-.067-.02-.107z" fill="#9cceff" transform="matrix(24 0 0 24 359.668 317.464)"></path><path d="m.06-.242c0-.041.007-.077.02-.109.013-.031.03-.058.052-.08s.047-.039.076-.05.06-.017.092-.017.063.006.091.017c.03.011.055.028.077.05s.039.049.052.08c.013.032.02.068.02.109 0 .04-.007.076-.02.107-.013.032-.03.059-.052.081-.022.021-.047.038-.077.049-.028.011-.059.017-.091.017s-.063-.006-.092-.017-.054-.028-.076-.049c-.022-.022-.04-.049-.053-.081-.013-.031-.019-.067-.019-.107zm.085 0c0 .028.004.053.011.076s.018.042.031.058c.014.017.03.029.049.038s.041.014.064.014.044-.005.063-.014.036-.021.049-.038c.014-.016.025-.035.032-.058s.011-.048.011-.076-.004-.054-.011-.077c-.007-.022-.018-.042-.032-.059-.013-.017-.03-.03-.049-.038-.019-.01-.04-.014-.063-.014s-.045.005-.064.014c-.019.008-.035.021-.049.038-.013.017-.024.037-.031.059-.007.023-.011.049-.011.077z" fill="#9cceff" transform="matrix(24 0 0 24 374.068 317.464)"></path><path d="m.093-.486h.068l.007.083h.004c.025-.027.053-.05.082-.068s.063-.027.101-.027c.058 0 .101.016.128.049.026.033.04.082.04.147v.302h-.082v-.291c0-.046-.009-.08-.026-.102-.017-.023-.046-.034-.086-.034-.015 0-.028.002-.04.006-.013.003-.025.009-.037.016s-.024.017-.037.028-.026.023-.04.038v.339h-.082z" fill="#9cceff" transform="matrix(24 0 0 24 388.468 317.464)"></path><path d="m.206-.419h-.137v-.062l.14-.005.011-.136h.068v.136h.239v.067h-.239v.231c0 .022.002.041.006.057.004.017.011.031.02.042s.022.02.038.025c.016.006.036.009.059.009s.044-.002.063-.006.037-.009.054-.016l.018.06c-.022.008-.046.015-.073.02-.027.006-.053.009-.08.009-.035 0-.065-.005-.089-.015-.024-.009-.043-.023-.058-.041-.014-.017-.024-.038-.031-.063-.006-.025-.009-.052-.009-.082z" fill="#9cceff" transform="matrix(24 0 0 24 402.868 317.464)"></path><path d="m.069-.242c0-.04.007-.076.021-.108.014-.031.032-.058.055-.08s.05-.039.079-.05c.03-.012.061-.018.092-.018.035 0 .066.006.093.017s.05.026.07.046c.019.02.033.044.043.072s.015.059.015.093c0 .009 0 .017-.001.026 0 .008-.001.015-.002.021h-.38c.001.026.006.049.015.07.01.021.023.038.039.053.017.015.036.026.058.034.023.008.047.012.074.012.029 0 .055-.004.078-.012.024-.008.047-.019.07-.033l.029.054c-.024.015-.051.029-.082.04s-.066.017-.105.017c-.036 0-.07-.006-.102-.017-.031-.012-.059-.029-.083-.05-.023-.022-.042-.049-.056-.08-.013-.031-.02-.067-.02-.107zm.392-.04c0-.049-.013-.086-.038-.112s-.061-.039-.106-.039c-.02 0-.039.003-.058.01-.018.007-.034.016-.049.029s-.027.029-.037.048-.017.04-.02.064z" fill="#9cceff" transform="matrix(24 0 0 24 417.268 317.464)"></path><path d="m.093-.486h.068l.007.083h.004c.025-.027.053-.05.082-.068s.063-.027.101-.027c.058 0 .101.016.128.049.026.033.04.082.04.147v.302h-.082v-.291c0-.046-.009-.08-.026-.102-.017-.023-.046-.034-.086-.034-.015 0-.028.002-.04.006-.013.003-.025.009-.037.016s-.024.017-.037.028-.026.023-.04.038v.339h-.082z" fill="#9cceff" transform="matrix(24 0 0 24 431.668 317.464)"></path><path d="m.206-.419h-.137v-.062l.14-.005.011-.136h.068v.136h.239v.067h-.239v.231c0 .022.002.041.006.057.004.017.011.031.02.042s.022.02.038.025c.016.006.036.009.059.009s.044-.002.063-.006.037-.009.054-.016l.018.06c-.022.008-.046.015-.073.02-.027.006-.053.009-.08.009-.035 0-.065-.005-.089-.015-.024-.009-.043-.023-.058-.041-.014-.017-.024-.038-.031-.063-.006-.025-.009-.052-.009-.082z" fill="#9cceff" transform="matrix(24 0 0 24 446.068 317.464)"></path><path d="m.219-.43c0-.025.008-.046.023-.062.016-.015.035-.023.058-.023s.042.008.057.024c.016.015.024.036.024.061s-.008.046-.024.061c-.015.015-.034.023-.057.023s-.042-.008-.057-.023c-.016-.015-.024-.036-.024-.061zm0 .358c0-.025.008-.046.023-.062.016-.015.035-.023.058-.023s.042.008.057.023c.016.016.024.037.024.062s-.008.046-.024.061c-.015.015-.034.023-.057.023s-.042-.008-.057-.023c-.016-.015-.024-.036-.024-.061z" fill="#9cceff" transform="matrix(24 0 0 24 460.468 317.464)"></path><path d="m.133-.577-.002-.11h.11l-.002.11-.025.225h-.056zm.229 0-.002-.11h.11l-.002.11-.025.225h-.056z" fill="#c4e2ff" transform="matrix(24 0 0 24 489.268 317.464)"></path><path d="m.517-.269c.001-.045.01-.13.019-.18.01-.053.01-.055.01-.066 0-.022-.013-.031-.046-.031-.032 0-.045.009-.045.031 0 .005.001.019.003.026.017.095.024.161.026.22zm-.017.034c-.025 0-.045.02-.045.045s.02.045.045.045.045-.02.045-.045-.02-.045-.045-.045zm0-.538-.45.713h.901zm0 .093.355.57h-.71z" fill="#c4e2ff" transform="matrix(24 0 0 24 503.668 317.464)"></path><path d="m.133-.577-.002-.11h.11l-.002.11-.025.225h-.056zm.229 0-.002-.11h.11l-.002.11-.025.225h-.056z" fill="#c4e2ff" transform="matrix(24 0 0 24 527.668 317.464)"></path><path d="m.219-.43c0-.025.008-.046.023-.062.016-.015.035-.023.058-.023s.042.008.057.024c.016.015.024.036.024.061s-.008.046-.024.061c-.015.015-.034.023-.057.023s-.042-.008-.057-.023c-.016-.015-.024-.036-.024-.061zm-.022.591c.041-.019.072-.041.093-.067.021-.027.032-.06.033-.1-.003.001-.007.001-.01.002-.003 0-.006 0-.009 0-.021 0-.04-.006-.055-.018-.015-.013-.023-.032-.023-.057s.008-.043.024-.056.035-.02.056-.02c.03 0 .052.012.067.035s.023.054.023.093c0 .059-.016.108-.047.149-.031.04-.074.07-.129.091z" fill="#fff" transform="matrix(24 0 0 24 542.068 317.464)"></path><path d="m.15.104c.025 0 .046-.002.063-.005.016-.003.029-.008.038-.016.009-.007.016-.016.019-.028.003-.011.005-.025.005-.041 0-.031-.001-.06-.003-.088s-.003-.059-.003-.093c0-.033.006-.058.019-.075s.036-.028.071-.034v-.004c-.035-.006-.058-.017-.071-.034s-.019-.042-.019-.075c0-.031.001-.062.003-.092.002-.031.003-.06.003-.089 0-.016-.002-.03-.005-.041-.003-.012-.01-.021-.019-.028s-.022-.013-.039-.016c-.016-.003-.037-.005-.062-.005h-.051v-.048h.061c.031 0 .059.002.082.007.023.004.042.011.057.021s.027.024.034.041.011.038.011.064c0 .035-.001.068-.004.099s-.005.062-.005.094c0 .01.002.02.006.029s.011.017.022.024.026.013.045.018.043.007.072.007v.052c-.029 0-.053.002-.072.007s-.034.011-.045.018-.018.016-.022.025-.006.018-.006.028c0 .017.001.033.002.048s.002.031.003.046.002.031.003.048c.001.016.001.033.001.051 0 .026-.004.048-.011.065s-.019.03-.034.04-.034.017-.057.022c-.023.004-.051.006-.082.006h-.061v-.048h.051z" fill="#fff" transform="matrix(24 0 0 24 570.868 317.464)"></path><path d="m.081-.126c0-.027.007-.051.02-.072.012-.02.033-.037.062-.052.028-.015.064-.027.109-.036s.098-.017.161-.022c-.001-.017-.003-.032-.008-.047s-.012-.027-.022-.038c-.01-.012-.023-.02-.04-.027-.016-.007-.036-.01-.059-.01-.032 0-.063.006-.092.019-.029.012-.055.025-.078.039l-.032-.056c.012-.008.026-.016.042-.024.017-.009.034-.016.052-.023.019-.007.038-.012.059-.016.021-.005.042-.007.063-.007.067 0 .116.018.148.055.033.036.049.084.049.145v.298h-.067l-.007-.066h-.003c-.027.021-.058.04-.091.055s-.066.023-.101.023c-.023 0-.044-.003-.064-.009-.02-.007-.038-.016-.053-.027-.015-.012-.026-.026-.035-.043s-.013-.037-.013-.059zm.08-.006c0 .014.003.026.009.036.006.009.014.017.023.024.01.006.021.011.034.014s.027.004.041.004c.028 0 .055-.006.082-.018.027-.013.055-.031.083-.054v-.128c-.052.004-.096.01-.131.017s-.063.016-.084.027c-.021.01-.035.022-.044.035s-.013.027-.013.043z" fill="#db9fff" transform="matrix(24 0 0 24 201.268 210.463663)"></path><path d="m.219-.43c0-.025.008-.046.023-.062.016-.015.035-.023.058-.023s.042.008.057.024c.016.015.024.036.024.061s-.008.046-.024.061c-.015.015-.034.023-.057.023s-.042-.008-.057-.023c-.016-.015-.024-.036-.024-.061zm0 .358c0-.025.008-.046.023-.062.016-.015.035-.023.058-.023s.042.008.057.023c.016.016.024.037.024.062s-.008.046-.024.061c-.015.015-.034.023-.057.023s-.042-.008-.057-.023c-.016-.015-.024-.036-.024-.061z" fill="#db9fff" transform="matrix(24 0 0 24 215.668 210.463663)"></path><path d="m.219-.43c0-.025.008-.046.023-.062.016-.015.035-.023.058-.023s.042.008.057.024c.016.015.024.036.024.061s-.008.046-.024.061c-.015.015-.034.023-.057.023s-.042-.008-.057-.023c-.016-.015-.024-.036-.024-.061zm0 .358c0-.025.008-.046.023-.062.016-.015.035-.023.058-.023s.042.008.057.023c.016.016.024.037.024.062s-.008.046-.024.061c-.015.015-.034.023-.057.023s-.042-.008-.057-.023c-.016-.015-.024-.036-.024-.061z" fill="#db9fff" transform="matrix(24 0 0 24 230.068 210.463663)"></path><path d="m.093-.712h.082v.194l-.002.094c.023-.023.05-.041.079-.054.028-.013.057-.02.086-.02.033 0 .062.006.087.018.025.011.046.028.063.05.017.021.03.047.039.078.009.03.013.064.013.101 0 .041-.006.078-.018.111s-.028.06-.048.083c-.021.023-.044.04-.071.052-.027.011-.054.017-.083.017-.023 0-.048-.006-.076-.017-.026-.012-.052-.028-.075-.049h-.003l-.007.054h-.066v-.712zm.082.598c.023.021.047.035.071.044.023.009.044.013.061.013.021 0 .041-.005.059-.014s.034-.021.047-.038c.013-.016.024-.036.031-.06s.011-.051.011-.081c0-.027-.003-.051-.008-.073s-.013-.041-.024-.056c-.011-.016-.026-.028-.043-.037s-.038-.013-.062-.013c-.021 0-.044.006-.068.017-.025.012-.05.031-.075.056z" fill="#db9fff" transform="matrix(24 0 0 24 244.468 210.463663)"></path><path d="m.069-.242c0-.04.007-.076.021-.108.014-.031.032-.058.055-.08s.05-.039.079-.05c.03-.012.061-.018.092-.018.035 0 .066.006.093.017s.05.026.07.046c.019.02.033.044.043.072s.015.059.015.093c0 .009 0 .017-.001.026 0 .008-.001.015-.002.021h-.38c.001.026.006.049.015.07.01.021.023.038.039.053.017.015.036.026.058.034.023.008.047.012.074.012.029 0 .055-.004.078-.012.024-.008.047-.019.07-.033l.029.054c-.024.015-.051.029-.082.04s-.066.017-.105.017c-.036 0-.07-.006-.102-.017-.031-.012-.059-.029-.083-.05-.023-.022-.042-.049-.056-.08-.013-.031-.02-.067-.02-.107zm.392-.04c0-.049-.013-.086-.038-.112s-.061-.039-.106-.039c-.02 0-.039.003-.058.01-.018.007-.034.016-.049.029s-.027.029-.037.048-.017.04-.02.064z" fill="#db9fff" transform="matrix(24 0 0 24 258.868 210.463663)"></path><path d="m.559-.634c-.02-.009-.038-.016-.055-.018-.017-.003-.037-.005-.058-.005-.044 0-.076.011-.094.033-.019.023-.029.054-.029.094v.044h.204v.067h-.204v.419h-.081v-.419h-.139v-.062l.139-.005v-.041c0-.059.016-.107.048-.143.031-.036.081-.054.148-.054.048 0 .095.009.14.028z" fill="#db9fff" transform="matrix(24 0 0 24 273.268 210.463663)"></path><path d="m.06-.242c0-.041.007-.077.02-.109.013-.031.03-.058.052-.08s.047-.039.076-.05.06-.017.092-.017.063.006.091.017c.03.011.055.028.077.05s.039.049.052.08c.013.032.02.068.02.109 0 .04-.007.076-.02.107-.013.032-.03.059-.052.081-.022.021-.047.038-.077.049-.028.011-.059.017-.091.017s-.063-.006-.092-.017-.054-.028-.076-.049c-.022-.022-.04-.049-.053-.081-.013-.031-.019-.067-.019-.107zm.085 0c0 .028.004.053.011.076s.018.042.031.058c.014.017.03.029.049.038s.041.014.064.014.044-.005.063-.014.036-.021.049-.038c.014-.016.025-.035.032-.058s.011-.048.011-.076-.004-.054-.011-.077c-.007-.022-.018-.042-.032-.059-.013-.017-.03-.03-.049-.038-.019-.01-.04-.014-.063-.014s-.045.005-.064.014c-.019.008-.035.021-.049.038-.013.017-.024.037-.031.059-.007.023-.011.049-.011.077z" fill="#db9fff" transform="matrix(24 0 0 24 287.668 210.463663)"></path><path d="m.146-.486h.068l.007.115h.003c.025-.039.057-.07.094-.093.036-.023.078-.034.123-.034.018 0 .035.002.05.005s.031.008.046.015l-.019.071c-.017-.006-.032-.01-.043-.013-.012-.003-.028-.004-.047-.004-.037 0-.072.011-.106.031-.033.022-.065.057-.094.108v.285h-.082z" fill="#db9fff" transform="matrix(24 0 0 24 302.068 210.463663)"></path><path d="m.069-.242c0-.04.007-.076.021-.108.014-.031.032-.058.055-.08s.05-.039.079-.05c.03-.012.061-.018.092-.018.035 0 .066.006.093.017s.05.026.07.046c.019.02.033.044.043.072s.015.059.015.093c0 .009 0 .017-.001.026 0 .008-.001.015-.002.021h-.38c.001.026.006.049.015.07.01.021.023.038.039.053.017.015.036.026.058.034.023.008.047.012.074.012.029 0 .055-.004.078-.012.024-.008.047-.019.07-.033l.029.054c-.024.015-.051.029-.082.04s-.066.017-.105.017c-.036 0-.07-.006-.102-.017-.031-.012-.059-.029-.083-.05-.023-.022-.042-.049-.056-.08-.013-.031-.02-.067-.02-.107zm.392-.04c0-.049-.013-.086-.038-.112s-.061-.039-.106-.039c-.02 0-.039.003-.058.01-.018.007-.034.016-.049.029s-.027.029-.037.048-.017.04-.02.064z" fill="#db9fff" transform="matrix(24 0 0 24 316.468 210.463663)"></path><path d="m.256.019c0-.018.001-.035.002-.052.001-.016.002-.032.003-.047s.002-.031.003-.046.001-.031.001-.048c0-.01-.002-.02-.006-.029s-.011-.017-.022-.024-.025-.013-.045-.018c-.019-.005-.043-.007-.072-.007v-.052c.029 0 .053-.002.073-.007.019-.005.033-.011.044-.018s.018-.016.022-.024c.004-.009.006-.019.006-.029 0-.032-.002-.063-.005-.094s-.004-.064-.004-.099c0-.026.004-.047.011-.065.007-.016.019-.03.034-.04s.035-.017.058-.021c.023-.005.051-.007.082-.007h.061v.048h-.052c-.025 0-.046.002-.063.005-.016.003-.029.009-.037.016-.01.007-.016.016-.019.028-.003.011-.005.025-.005.041 0 .029.001.058.003.089.002.03.003.061.003.092 0 .033-.007.058-.02.075s-.036.028-.071.034v.004c.035.006.058.018.072.035.013.017.019.041.019.074 0 .034-.001.065-.003.093s-.003.057-.003.088c0 .016.002.03.005.042.003.011.01.021.019.028.008.007.021.012.037.015.017.003.038.005.063.005h.052v.048h-.061c-.031 0-.059-.002-.082-.006-.023-.005-.043-.012-.058-.022s-.027-.023-.034-.04-.011-.039-.011-.065z" fill="#fff" transform="matrix(24 0 0 24 345.268 210.463663)"></path><path d="m.08-.242c0-.041.007-.077.022-.109.014-.031.033-.058.058-.08s.054-.039.086-.05c.034-.011.068-.017.105-.017.04 0 .075.007.104.021s.053.031.073.05l-.041.053c-.02-.017-.041-.031-.062-.041-.022-.01-.046-.015-.071-.015-.028 0-.054.005-.077.014-.023.008-.043.021-.059.038-.017.017-.03.037-.039.059-.009.023-.014.049-.014.077s.005.053.014.076.021.042.038.058c.016.017.036.029.059.038s.048.014.076.014c.03 0 .058-.006.083-.018.025-.011.047-.026.068-.043l.036.053c-.027.024-.056.043-.089.056-.033.013-.068.02-.104.02-.038 0-.073-.006-.105-.017-.033-.011-.061-.028-.085-.05-.024-.021-.043-.048-.056-.08-.013-.031-.02-.067-.02-.107z" fill="#9cceff" transform="matrix(24 0 0 24 374.068 210.463663)"></path><path d="m.06-.242c0-.041.007-.077.02-.109.013-.031.03-.058.052-.08s.047-.039.076-.05.06-.017.092-.017.063.006.091.017c.03.011.055.028.077.05s.039.049.052.08c.013.032.02.068.02.109 0 .04-.007.076-.02.107-.013.032-.03.059-.052.081-.022.021-.047.038-.077.049-.028.011-.059.017-.091.017s-.063-.006-.092-.017-.054-.028-.076-.049c-.022-.022-.04-.049-.053-.081-.013-.031-.019-.067-.019-.107zm.085 0c0 .028.004.053.011.076s.018.042.031.058c.014.017.03.029.049.038s.041.014.064.014.044-.005.063-.014.036-.021.049-.038c.014-.016.025-.035.032-.058s.011-.048.011-.076-.004-.054-.011-.077c-.007-.022-.018-.042-.032-.059-.013-.017-.03-.03-.049-.038-.019-.01-.04-.014-.063-.014s-.045.005-.064.014c-.019.008-.035.021-.049.038-.013.017-.024.037-.031.059-.007.023-.011.049-.011.077z" fill="#9cceff" transform="matrix(24 0 0 24 388.468 210.463663)"></path><path d="m.093-.486h.068l.007.083h.004c.025-.027.053-.05.082-.068s.063-.027.101-.027c.058 0 .101.016.128.049.026.033.04.082.04.147v.302h-.082v-.291c0-.046-.009-.08-.026-.102-.017-.023-.046-.034-.086-.034-.015 0-.028.002-.04.006-.013.003-.025.009-.037.016s-.024.017-.037.028-.026.023-.04.038v.339h-.082z" fill="#9cceff" transform="matrix(24 0 0 24 402.868 210.463663)"></path><path d="m.206-.419h-.137v-.062l.14-.005.011-.136h.068v.136h.239v.067h-.239v.231c0 .022.002.041.006.057.004.017.011.031.02.042s.022.02.038.025c.016.006.036.009.059.009s.044-.002.063-.006.037-.009.054-.016l.018.06c-.022.008-.046.015-.073.02-.027.006-.053.009-.08.009-.035 0-.065-.005-.089-.015-.024-.009-.043-.023-.058-.041-.014-.017-.024-.038-.031-.063-.006-.025-.009-.052-.009-.082z" fill="#9cceff" transform="matrix(24 0 0 24 417.268 210.463663)"></path><path d="m.069-.242c0-.04.007-.076.021-.108.014-.031.032-.058.055-.08s.05-.039.079-.05c.03-.012.061-.018.092-.018.035 0 .066.006.093.017s.05.026.07.046c.019.02.033.044.043.072s.015.059.015.093c0 .009 0 .017-.001.026 0 .008-.001.015-.002.021h-.38c.001.026.006.049.015.07.01.021.023.038.039.053.017.015.036.026.058.034.023.008.047.012.074.012.029 0 .055-.004.078-.012.024-.008.047-.019.07-.033l.029.054c-.024.015-.051.029-.082.04s-.066.017-.105.017c-.036 0-.07-.006-.102-.017-.031-.012-.059-.029-.083-.05-.023-.022-.042-.049-.056-.08-.013-.031-.02-.067-.02-.107zm.392-.04c0-.049-.013-.086-.038-.112s-.061-.039-.106-.039c-.02 0-.039.003-.058.01-.018.007-.034.016-.049.029s-.027.029-.037.048-.017.04-.02.064z" fill="#9cceff" transform="matrix(24 0 0 24 431.668 210.463663)"></path><path d="m.093-.486h.068l.007.083h.004c.025-.027.053-.05.082-.068s.063-.027.101-.027c.058 0 .101.016.128.049.026.033.04.082.04.147v.302h-.082v-.291c0-.046-.009-.08-.026-.102-.017-.023-.046-.034-.086-.034-.015 0-.028.002-.04.006-.013.003-.025.009-.037.016s-.024.017-.037.028-.026.023-.04.038v.339h-.082z" fill="#9cceff" transform="matrix(24 0 0 24 446.068 210.463663)"></path><path d="m.206-.419h-.137v-.062l.14-.005.011-.136h.068v.136h.239v.067h-.239v.231c0 .022.002.041.006.057.004.017.011.031.02.042s.022.02.038.025c.016.006.036.009.059.009s.044-.002.063-.006.037-.009.054-.016l.018.06c-.022.008-.046.015-.073.02-.027.006-.053.009-.08.009-.035 0-.065-.005-.089-.015-.024-.009-.043-.023-.058-.041-.014-.017-.024-.038-.031-.063-.006-.025-.009-.052-.009-.082z" fill="#9cceff" transform="matrix(24 0 0 24 460.468 210.463663)"></path><path d="m.219-.43c0-.025.008-.046.023-.062.016-.015.035-.023.058-.023s.042.008.057.024c.016.015.024.036.024.061s-.008.046-.024.061c-.015.015-.034.023-.057.023s-.042-.008-.057-.023c-.016-.015-.024-.036-.024-.061zm0 .358c0-.025.008-.046.023-.062.016-.015.035-.023.058-.023s.042.008.057.023c.016.016.024.037.024.062s-.008.046-.024.061c-.015.015-.034.023-.057.023s-.042-.008-.057-.023c-.016-.015-.024-.036-.024-.061z" fill="#9cceff" transform="matrix(24 0 0 24 474.868 210.463663)"></path><path d="m.133-.577-.002-.11h.11l-.002.11-.025.225h-.056zm.229 0-.002-.11h.11l-.002.11-.025.225h-.056z" fill="#c4e2ff" transform="matrix(24 0 0 24 503.668 210.463663)"></path><path d="m.145.02c-.02-.055-.042-.107-.066-.155-.025-.047-.053-.094-.085-.14l.056-.038c.028.042.053.085.076.131.022.045.041.089.056.134h.004c.018-.059.04-.119.066-.178s.055-.117.087-.172c.032-.054.066-.106.103-.155s.075-.092.114-.131l.054.05c-.039.037-.078.078-.115.124-.037.047-.072.097-.105.152s-.063.113-.09.174c-.027.062-.05.127-.069.194l-.086.01z" fill="#c4e2ff" transform="matrix(24 0 0 24 518.068 210.463663)"></path><path d="m.133-.577-.002-.11h.11l-.002.11-.025.225h-.056zm.229 0-.002-.11h.11l-.002.11-.025.225h-.056z" fill="#c4e2ff" transform="matrix(24 0 0 24 532.468 210.463663)"></path><path d="m.219-.43c0-.025.008-.046.023-.062.016-.015.035-.023.058-.023s.042.008.057.024c.016.015.024.036.024.061s-.008.046-.024.061c-.015.015-.034.023-.057.023s-.042-.008-.057-.023c-.016-.015-.024-.036-.024-.061zm-.022.591c.041-.019.072-.041.093-.067.021-.027.032-.06.033-.1-.003.001-.007.001-.01.002-.003 0-.006 0-.009 0-.021 0-.04-.006-.055-.018-.015-.013-.023-.032-.023-.057s.008-.043.024-.056.035-.02.056-.02c.03 0 .052.012.067.035s.023.054.023.093c0 .059-.016.108-.047.149-.031.04-.074.07-.129.091z" fill="#fff" transform="matrix(24 0 0 24 546.868 210.463663)"></path><path d="m.15.104c.025 0 .046-.002.063-.005.016-.003.029-.008.038-.016.009-.007.016-.016.019-.028.003-.011.005-.025.005-.041 0-.031-.001-.06-.003-.088s-.003-.059-.003-.093c0-.033.006-.058.019-.075s.036-.028.071-.034v-.004c-.035-.006-.058-.017-.071-.034s-.019-.042-.019-.075c0-.031.001-.062.003-.092.002-.031.003-.06.003-.089 0-.016-.002-.03-.005-.041-.003-.012-.01-.021-.019-.028s-.022-.013-.039-.016c-.016-.003-.037-.005-.062-.005h-.051v-.048h.061c.031 0 .059.002.082.007.023.004.042.011.057.021s.027.024.034.041.011.038.011.064c0 .035-.001.068-.004.099s-.005.062-.005.094c0 .01.002.02.006.029s.011.017.022.024.026.013.045.018.043.007.072.007v.052c-.029 0-.053.002-.072.007s-.034.011-.045.018-.018.016-.022.025-.006.018-.006.028c0 .017.001.033.002.048s.002.031.003.046.002.031.003.048c.001.016.001.033.001.051 0 .026-.004.048-.011.065s-.019.03-.034.04-.034.017-.057.022c-.023.004-.051.006-.082.006h-.061v-.048h.051z" fill="#fff" transform="matrix(24 0 0 24 575.668 210.463663)"></path><path d="m205.42 178.304h-1.776l7.872-20.88h1.776z" fill="#bfbfbf"></path><path d="m219.82 178.304h-1.776l7.872-20.88h1.776z" fill="#bfbfbf"></path><path d="m246.052 166.592c0-1.264.172-2.4.516-3.408s.828-1.864 1.452-2.568 1.368-1.244 2.232-1.62 1.808-.564 2.832-.564c.96 0 1.8.192 2.52.576s1.312.832 1.776 1.344l-1.128 1.272c-.416-.432-.88-.78-1.392-1.044s-1.104-.396-1.776-.396c-.752 0-1.436.148-2.052.444s-1.14.72-1.572 1.272-.764 1.22-.996 2.004-.348 1.664-.348 2.64c0 .992.116 1.884.348 2.676s.564 1.468.996 2.028.956.992 1.572 1.296 1.3.456 2.052.456c.72 0 1.36-.152 1.92-.456s1.096-.736 1.608-1.296l1.152 1.224c-.624.72-1.328 1.28-2.112 1.68s-1.68.6-2.688.6c-.992 0-1.908-.184-2.748-.552s-1.568-.9-2.184-1.596-1.1-1.552-1.452-2.568-.528-2.164-.528-3.444z" fill="#bfbfbf"></path><path d="m261.676 171.032c.592.592 1.28 1.068 2.064 1.428s1.608.54 2.472.54c1.12 0 1.984-.236 2.592-.708s.912-1.092.912-1.86c0-.4-.072-.74-.216-1.02s-.344-.52-.6-.72-.556-.38-.9-.54-.716-.328-1.116-.504l-2.256-.984c-.4-.16-.8-.352-1.2-.576s-.764-.496-1.092-.816-.596-.7-.804-1.14-.312-.948-.312-1.524c0-.592.128-1.144.384-1.656s.612-.956 1.068-1.332 1-.668 1.632-.876 1.324-.312 2.076-.312c.992 0 1.904.18 2.736.54s1.536.828 2.112 1.404l-1.056 1.296c-.512-.464-1.076-.828-1.692-1.092s-1.316-.396-2.1-.396c-.96 0-1.72.204-2.28.612s-.84.972-.84 1.692c0 .384.084.708.252.972s.384.496.648.696.564.372.9.516l1.008.432 2.208.96c.48.192.932.412 1.356.66s.792.536 1.104.864.56.712.744 1.152.276.948.276 1.524c0 .624-.128 1.208-.384 1.752s-.624 1.02-1.104 1.428-1.064.728-1.752.96-1.464.348-2.328.348c-1.152 0-2.212-.208-3.18-.624s-1.812-.984-2.532-1.704z" fill="#bfbfbf"></path><path d="m276.076 171.032c.592.592 1.28 1.068 2.064 1.428s1.608.54 2.472.54c1.12 0 1.984-.236 2.592-.708s.912-1.092.912-1.86c0-.4-.072-.74-.216-1.02s-.344-.52-.6-.72-.556-.38-.9-.54-.716-.328-1.116-.504l-2.256-.984c-.4-.16-.8-.352-1.2-.576s-.764-.496-1.092-.816-.596-.7-.804-1.14-.312-.948-.312-1.524c0-.592.128-1.144.384-1.656s.612-.956 1.068-1.332 1-.668 1.632-.876 1.324-.312 2.076-.312c.992 0 1.904.18 2.736.54s1.536.828 2.112 1.404l-1.056 1.296c-.512-.464-1.076-.828-1.692-1.092s-1.316-.396-2.1-.396c-.96 0-1.72.204-2.28.612s-.84.972-.84 1.692c0 .384.084.708.252.972s.384.496.648.696.564.372.9.516l1.008.432 2.208.96c.48.192.932.412 1.356.66s.792.536 1.104.864.56.712.744 1.152.276.948.276 1.524c0 .624-.128 1.208-.384 1.752s-.624 1.02-1.104 1.428-1.064.728-1.752.96-1.464.348-2.328.348c-1.152 0-2.212-.208-3.18-.624s-1.812-.984-2.532-1.704z" fill="#bfbfbf"></path><path d="m290.044 171.296c.512.48 1.124.904 1.836 1.272s1.564.552 2.556.552c.528 0 1.016-.068 1.464-.204s.836-.324 1.164-.564.584-.532.768-.876.276-.732.276-1.164c0-.448-.1-.86-.3-1.236s-.524-.7-.972-.972-1.024-.48-1.728-.624-1.56-.216-2.568-.216v-1.512c.912 0 1.684-.072 2.316-.216s1.148-.344 1.548-.6.692-.56.876-.912.276-.728.276-1.128c0-.752-.284-1.344-.852-1.776s-1.324-.648-2.268-.648c-.72 0-1.4.144-2.04.432s-1.216.664-1.728 1.128l-1.056-1.248c.64-.56 1.368-1.02 2.184-1.38s1.72-.54 2.712-.54c.72 0 1.388.088 2.004.264s1.152.428 1.608.756.812.732 1.068 1.212.384 1.032.384 1.656c0 .928-.304 1.688-.912 2.28s-1.392 1.048-2.352 1.368v.096c.512.112.996.276 1.452.492s.86.488 1.212.816.628.708.828 1.14.3.912.3 1.44c0 .672-.144 1.28-.432 1.824s-.684 1.004-1.188 1.38-1.092.664-1.764.864-1.392.3-2.16.3c-1.328 0-2.44-.22-3.336-.66s-1.624-.94-2.184-1.5z" fill="#bfbfbf"></path><path d="m319.156 171.632c.656.48 1.36.864 2.112 1.152s1.656.432 2.712.432 1.84-.176 2.352-.528.768-.784.768-1.296c0-.448-.276-.848-.828-1.2s-1.54-.704-2.964-1.056c-.608-.144-1.18-.32-1.716-.528s-1.004-.452-1.404-.732-.72-.588-.96-.924-.36-.712-.36-1.128c0-.464.104-.9.312-1.308s.516-.76.924-1.056.92-.528 1.536-.696 1.324-.252 2.124-.252c.88 0 1.736.148 2.568.444s1.536.644 2.112 1.044l-.96 1.272c-.512-.368-1.08-.664-1.704-.888s-1.296-.336-2.016-.336c-.544 0-1 .044-1.368.132s-.664.208-.888.36-.384.332-.48.54-.144.424-.144.648c0 .48.328.876.984 1.188s1.512.604 2.568.876c1.584.4 2.756.856 3.516 1.368s1.14 1.216 1.14 2.112c0 .48-.112.928-.336 1.344s-.556.784-.996 1.104-.984.572-1.632.756-1.388.276-2.22.276c-1.152 0-2.212-.18-3.18-.54s-1.812-.788-2.532-1.284z" fill="#bfbfbf"></path><path d="m332.884 177.68c.16.048.332.088.516.12s.364.048.54.048c.816 0 1.48-.236 1.992-.708s.912-1.068 1.2-1.788l.36-.864-5.448-11.688h1.992l2.856 6.456c.224.512.46 1.064.708 1.656s.492 1.168.732 1.728h.096c.208-.56.42-1.132.636-1.716s.42-1.14.612-1.668l2.544-6.456h1.872l-5.136 12.624c-.224.576-.48 1.112-.768 1.608s-.632.924-1.032 1.284-.86.644-1.38.852-1.108.312-1.764.312c-.576 0-1.088-.08-1.536-.24z" fill="#bfbfbf"></path><path d="m347.5 162.8h1.632l.168 1.992h.096c.608-.656 1.264-1.2 1.968-1.632s1.512-.648 2.424-.648c1.392 0 2.412.396 3.06 1.188s.972 1.964.972 3.516v7.248h-1.968v-6.984c0-1.104-.208-1.924-.624-2.46s-1.104-.804-2.064-.804c-.352 0-.676.044-.972.132s-.588.22-.876.396-.584.396-.888.66-.624.572-.96.924v8.136h-1.968z" fill="#bfbfbf"></path><path d="m364.612 164.408h-3.288v-1.488l3.36-.12.264-3.264h1.632v3.264h5.736v1.608h-5.736v5.544c0 .528.048.988.144 1.38s.256.724.48.996.528.476.912.612.856.204 1.416.204 1.064-.048 1.512-.144.88-.224 1.296-.384l.432 1.44c-.528.192-1.112.356-1.752.492s-1.28.204-1.92.204c-.848 0-1.56-.116-2.136-.348s-1.036-.56-1.38-.984-.592-.932-.744-1.524-.228-1.248-.228-1.968z" fill="#bfbfbf"></path><path d="m376.012 171.44c0-.656.156-1.228.468-1.716s.808-.908 1.488-1.26 1.556-.64 2.628-.864 2.36-.4 3.864-.528c-.016-.4-.08-.776-.192-1.128s-.288-.66-.528-.924-.556-.476-.948-.636-.868-.24-1.428-.24c-.768 0-1.504.148-2.208.444s-1.328.612-1.872.948l-.768-1.344c.288-.192.628-.388 1.02-.588s.808-.38 1.248-.54.908-.292 1.404-.396 1-.156 1.512-.156c1.6 0 2.788.436 3.564 1.308s1.164 2.036 1.164 3.492v7.152h-1.608l-.168-1.584h-.072c-.656.512-1.38.952-2.172 1.32s-1.604.552-2.436.552c-.544 0-1.056-.076-1.536-.228s-.9-.368-1.26-.648-.644-.624-.852-1.032-.312-.876-.312-1.404zm1.92-.144c0 .336.072.62.216.852s.332.424.564.576.504.264.816.336.636.108.972.108c.672 0 1.332-.148 1.98-.444s1.308-.724 1.98-1.284v-3.072c-1.248.096-2.292.232-3.132.408s-1.512.388-2.016.636-.86.528-1.068.84-.312.66-.312 1.044z" fill="#bfbfbf"></path><path d="m394.444 168.416-4.104-5.616h2.184l1.848 2.568c.208.32.428.648.66.984s.468.664.708.984h.096c.224-.32.448-.656.672-1.008s.44-.688.648-1.008l1.752-2.52h2.088l-4.152 5.784 4.464 5.88h-2.16l-2.04-2.688c-.24-.336-.492-.688-.756-1.056s-.524-.72-.78-1.056h-.096c-.24.352-.48.7-.72 1.044s-.48.7-.72 1.068l-1.92 2.688h-2.112z" fill="#bfbfbf"></path><path d="m205.42 287.368h-1.776l7.872-20.88h1.776z" fill="#bfbfbf"></path><path d="m219.82 287.368h-1.776l7.872-20.88h1.776z" fill="#bfbfbf"></path><path d="m246.052 275.656c0-1.264.172-2.4.516-3.408s.828-1.864 1.452-2.568 1.368-1.244 2.232-1.62 1.808-.564 2.832-.564c.96 0 1.8.192 2.52.576s1.312.832 1.776 1.344l-1.128 1.272c-.416-.432-.88-.78-1.392-1.044s-1.104-.396-1.776-.396c-.752 0-1.436.148-2.052.444s-1.14.72-1.572 1.272-.764 1.22-.996 2.004-.348 1.664-.348 2.64c0 .992.116 1.884.348 2.676s.564 1.468.996 2.028.956.992 1.572 1.296 1.3.456 2.052.456c.72 0 1.36-.152 1.92-.456s1.096-.736 1.608-1.296l1.152 1.224c-.624.72-1.328 1.28-2.112 1.68s-1.68.6-2.688.6c-.992 0-1.908-.184-2.748-.552s-1.568-.9-2.184-1.596-1.1-1.552-1.452-2.568-.528-2.164-.528-3.444z" fill="#bfbfbf"></path><path d="m261.676 280.096c.592.592 1.28 1.068 2.064 1.428s1.608.54 2.472.54c1.12 0 1.984-.236 2.592-.708s.912-1.092.912-1.86c0-.4-.072-.74-.216-1.02s-.344-.52-.6-.72-.556-.38-.9-.54-.716-.328-1.116-.504l-2.256-.984c-.4-.16-.8-.352-1.2-.576s-.764-.496-1.092-.816-.596-.7-.804-1.14-.312-.948-.312-1.524c0-.592.128-1.144.384-1.656s.612-.956 1.068-1.332 1-.668 1.632-.876 1.324-.312 2.076-.312c.992 0 1.904.18 2.736.54s1.536.828 2.112 1.404l-1.056 1.296c-.512-.464-1.076-.828-1.692-1.092s-1.316-.396-2.1-.396c-.96 0-1.72.204-2.28.612s-.84.972-.84 1.692c0 .384.084.708.252.972s.384.496.648.696.564.372.9.516l1.008.432 2.208.96c.48.192.932.412 1.356.66s.792.536 1.104.864.56.712.744 1.152.276.948.276 1.524c0 .624-.128 1.208-.384 1.752s-.624 1.02-1.104 1.428-1.064.728-1.752.96-1.464.348-2.328.348c-1.152 0-2.212-.208-3.18-.624s-1.812-.984-2.532-1.704z" fill="#bfbfbf"></path><path d="m276.076 280.096c.592.592 1.28 1.068 2.064 1.428s1.608.54 2.472.54c1.12 0 1.984-.236 2.592-.708s.912-1.092.912-1.86c0-.4-.072-.74-.216-1.02s-.344-.52-.6-.72-.556-.38-.9-.54-.716-.328-1.116-.504l-2.256-.984c-.4-.16-.8-.352-1.2-.576s-.764-.496-1.092-.816-.596-.7-.804-1.14-.312-.948-.312-1.524c0-.592.128-1.144.384-1.656s.612-.956 1.068-1.332 1-.668 1.632-.876 1.324-.312 2.076-.312c.992 0 1.904.18 2.736.54s1.536.828 2.112 1.404l-1.056 1.296c-.512-.464-1.076-.828-1.692-1.092s-1.316-.396-2.1-.396c-.96 0-1.72.204-2.28.612s-.84.972-.84 1.692c0 .384.084.708.252.972s.384.496.648.696.564.372.9.516.672.288 1.008.432l2.208.96c.48.192.932.412 1.356.66s.792.536 1.104.864.56.712.744 1.152.276.948.276 1.524c0 .624-.128 1.208-.384 1.752s-.624 1.02-1.104 1.428-1.064.728-1.752.96-1.464.348-2.328.348c-1.152 0-2.212-.208-3.18-.624s-1.812-.984-2.532-1.704z" fill="#bfbfbf"></path><path d="m289.42 282.352c1.296-1.152 2.444-2.192 3.444-3.12s1.84-1.78 2.52-2.556 1.196-1.5 1.548-2.172.528-1.328.528-1.968c0-.88-.272-1.6-.816-2.16s-1.384-.84-2.52-.84c-.72 0-1.388.18-2.004.54s-1.172.796-1.668 1.308l-1.128-1.128c.688-.704 1.428-1.268 2.22-1.692s1.732-.636 2.82-.636c.768 0 1.46.108 2.076.324s1.14.52 1.572.912.764.868.996 1.428.348 1.176.348 1.848c0 .72-.172 1.444-.516 2.172s-.828 1.48-1.452 2.256-1.368 1.584-2.232 2.424-1.816 1.732-2.856 2.676c.464-.032.94-.064 1.428-.096s.964-.048 1.428-.048h5.04v1.704h-10.776z" fill="#bfbfbf"></path><path d="m319.156 280.696c.656.48 1.36.864 2.112 1.152s1.656.432 2.712.432 1.84-.176 2.352-.528.768-.784.768-1.296c0-.448-.276-.848-.828-1.2s-1.54-.704-2.964-1.056c-.608-.144-1.18-.32-1.716-.528s-1.004-.452-1.404-.732-.72-.588-.96-.924-.36-.712-.36-1.128c0-.464.104-.9.312-1.308s.516-.76.924-1.056.92-.528 1.536-.696 1.324-.252 2.124-.252c.88 0 1.736.148 2.568.444s1.536.644 2.112 1.044l-.96 1.272c-.512-.368-1.08-.664-1.704-.888s-1.296-.336-2.016-.336c-.544 0-1 .044-1.368.132s-.664.208-.888.36-.384.332-.48.54-.144.424-.144.648c0 .48.328.876.984 1.188s1.512.604 2.568.876c1.584.4 2.756.856 3.516 1.368s1.14 1.216 1.14 2.112c0 .48-.112.928-.336 1.344s-.556.784-.996 1.104-.984.572-1.632.756-1.388.276-2.22.276c-1.152 0-2.212-.18-3.18-.54s-1.812-.788-2.532-1.284z" fill="#bfbfbf"></path><path d="m332.884 286.744c.16.048.332.088.516.12s.364.048.54.048c.816 0 1.48-.236 1.992-.708s.912-1.068 1.2-1.788l.36-.864-5.448-11.688h1.992l2.856 6.456c.224.512.46 1.064.708 1.656s.492 1.168.732 1.728h.096c.208-.56.42-1.132.636-1.716s.42-1.14.612-1.668l2.544-6.456h1.872l-5.136 12.624c-.224.576-.48 1.112-.768 1.608s-.632.924-1.032 1.284-.86.644-1.38.852-1.108.312-1.764.312c-.576 0-1.088-.08-1.536-.24z" fill="#bfbfbf"></path><path d="m347.5 271.864h1.632l.168 1.992h.096c.608-.656 1.264-1.2 1.968-1.632s1.512-.648 2.424-.648c1.392 0 2.412.396 3.06 1.188s.972 1.964.972 3.516v7.248h-1.968v-6.984c0-1.104-.208-1.924-.624-2.46s-1.104-.804-2.064-.804c-.352 0-.676.044-.972.132s-.588.22-.876.396-.584.396-.888.66-.624.572-.96.924v8.136h-1.968z" fill="#bfbfbf"></path><path d="m364.612 273.472h-3.288v-1.488l3.36-.12.264-3.264h1.632v3.264h5.736v1.608h-5.736v5.544c0 .528.048.988.144 1.38s.256.724.48.996.528.476.912.612.856.204 1.416.204 1.064-.048 1.512-.144.88-.224 1.296-.384l.432 1.44c-.528.192-1.112.356-1.752.492s-1.28.204-1.92.204c-.848 0-1.56-.116-2.136-.348s-1.036-.56-1.38-.984-.592-.932-.744-1.524-.228-1.248-.228-1.968z" fill="#bfbfbf"></path><path d="m376.012 280.504c0-.656.156-1.228.468-1.716s.808-.908 1.488-1.26 1.556-.64 2.628-.864 2.36-.4 3.864-.528c-.016-.4-.08-.776-.192-1.128s-.288-.66-.528-.924-.556-.476-.948-.636-.868-.24-1.428-.24c-.768 0-1.504.148-2.208.444s-1.328.612-1.872.948l-.768-1.344c.288-.192.628-.388 1.02-.588s.808-.38 1.248-.54.908-.292 1.404-.396 1-.156 1.512-.156c1.6 0 2.788.436 3.564 1.308s1.164 2.036 1.164 3.492v7.152h-1.608l-.168-1.584h-.072c-.656.512-1.38.952-2.172 1.32s-1.604.552-2.436.552c-.544 0-1.056-.076-1.536-.228s-.9-.368-1.26-.648-.644-.624-.852-1.032-.312-.876-.312-1.404zm1.92-.144c0 .336.072.62.216.852s.332.424.564.576.504.264.816.336.636.108.972.108c.672 0 1.332-.148 1.98-.444s1.308-.724 1.98-1.284v-3.072c-1.248.096-2.292.232-3.132.408s-1.512.388-2.016.636-.86.528-1.068.84-.312.66-.312 1.044z" fill="#bfbfbf"></path><path d="m394.444 277.48-4.104-5.616h2.184l1.848 2.568c.208.32.428.648.66.984s.468.664.708.984h.096c.224-.32.448-.656.672-1.008s.44-.688.648-1.008l1.752-2.52h2.088l-4.152 5.784 4.464 5.88h-2.16l-2.04-2.688c-.24-.336-.492-.688-.756-1.056s-.524-.72-.78-1.056h-.096c-.24.352-.48.7-.72 1.044s-.48.7-.72 1.068l-1.92 2.688h-2.112z" fill="#bfbfbf"></path></g></svg> 